<svg xmlns="http://www.w3.org/2000/svg" viewBox="0 0 360 200" width="360" height="200">
  <defs>
    <linearGradient id="bg" x1="0" y1="0" x2="0" y2="1">
      <stop offset="0" stop-color="#4a5568"/><stop offset="1" stop-color="#1a202c"/>
    </linearGradient>
    <linearGradient id="vig" x1="0" y1="0" x2="1" y2="1">
      <stop offset="0" stop-color="#000" stop-opacity="0"/><stop offset="1" stop-color="#000" stop-opacity="0.35"/>
    </linearGradient>
    <pattern id="grid" width="20" height="20" patternUnits="userSpaceOnUse">
      <path d="M20 0 L0 0 0 20" fill="none" stroke="#90cdf4" stroke-opacity="0.08" stroke-width="1"/>
    </pattern>
  </defs>
  <rect width="360" height="200" fill="url(#bg)"/>
  <rect width="360" height="200" fill="url(#grid)"/>
  <rect width="360" height="200" fill="url(#vig)"/>
  <rect x="4" y="4" width="352" height="192" rx="10" fill="none" stroke="#90cdf4" stroke-opacity="0.35" stroke-width="2"/>
  <g transform="translate(96,96)" opacity="0.92"><path d="M-30 30 L-18 -28 L18 -28 L30 30" fill="none" stroke="#90cdf4" stroke-width="6" stroke-linejoin="round"/><line x1="-24" y1="-6" x2="24" y2="-6" stroke="#90cdf4" stroke-width="4"/><line x1="-27" y1="14" x2="27" y2="14" stroke="#90cdf4" stroke-width="4"/></g>
  <rect x="24" y="18" width="86" height="26" rx="13" fill="#0006" stroke="#90cdf4" stroke-opacity="0.5"/>
  <text x="67" y="36" font-family="Arial, sans-serif" font-size="13" font-weight="bold" fill="#90cdf4" text-anchor="middle" letter-spacing="1">INFRA</text>
  
  <text x="24" y="152" font-family="Arial, sans-serif" font-size="26" font-weight="800" fill="#fff">Tunnel Entrance</text>
  <text x="24" y="180" font-family="Arial, sans-serif" font-size="26" font-weight="800" fill="#fff">(Transition)</text>
  <text x="336" y="184" font-family="Arial, sans-serif" font-size="11" fill="#fff" fill-opacity="0.5" text-anchor="end">RustMasterTool · Map Intel</text>
</svg>