<svg xmlns="http://www.w3.org/2000/svg" viewBox="0 0 360 200" width="360" height="200">
  <defs>
    <linearGradient id="bg" x1="0" y1="0" x2="0" y2="1">
      <stop offset="0" stop-color="#5a4a2f"/><stop offset="1" stop-color="#241d12"/>
    </linearGradient>
    <linearGradient id="vig" x1="0" y1="0" x2="1" y2="1">
      <stop offset="0" stop-color="#000" stop-opacity="0"/><stop offset="1" stop-color="#000" stop-opacity="0.35"/>
    </linearGradient>
    <pattern id="grid" width="20" height="20" patternUnits="userSpaceOnUse">
      <path d="M20 0 L0 0 0 20" fill="none" stroke="#d6b16a" stroke-opacity="0.08" stroke-width="1"/>
    </pattern>
  </defs>
  <rect width="360" height="200" fill="url(#bg)"/>
  <rect width="360" height="200" fill="url(#grid)"/>
  <rect width="360" height="200" fill="url(#vig)"/>
  <rect x="4" y="4" width="352" height="192" rx="10" fill="none" stroke="#d6b16a" stroke-opacity="0.35" stroke-width="2"/>
  <g transform="translate(96,96)" opacity="0.92"><path d="M-30 30 L-30 0 Q-30 -28 0 -28 Q30 -28 30 0 L30 30" fill="none" stroke="#d6b16a" stroke-width="6"/><line x1="-14" y1="30" x2="-14" y2="-8" stroke="#d6b16a" stroke-width="4"/><line x1="14" y1="30" x2="14" y2="-8" stroke="#d6b16a" stroke-width="4"/></g>
  <rect x="24" y="18" width="86" height="26" rx="13" fill="#0006" stroke="#d6b16a" stroke-opacity="0.5"/>
  <text x="67" y="36" font-family="Arial, sans-serif" font-size="13" font-weight="bold" fill="#d6b16a" text-anchor="middle" letter-spacing="1">TUNNEL</text>
  
  <text x="24" y="152" font-family="Arial, sans-serif" font-size="26" font-weight="800" fill="#fff">Tunnel Entrance</text>
  <text x="24" y="180" font-family="Arial, sans-serif" font-size="26" font-weight="800" fill="#fff">/ Train Tunnels</text>
  <text x="336" y="184" font-family="Arial, sans-serif" font-size="11" fill="#fff" fill-opacity="0.5" text-anchor="end">RustMasterTool · Map Intel</text>
</svg>