<svg xmlns="http://www.w3.org/2000/svg" viewBox="0 0 360 200" width="360" height="200">
  <defs>
    <linearGradient id="bg" x1="0" y1="0" x2="0" y2="1">
      <stop offset="0" stop-color="#6b46c1"/><stop offset="1" stop-color="#2d1b52"/>
    </linearGradient>
    <linearGradient id="vig" x1="0" y1="0" x2="1" y2="1">
      <stop offset="0" stop-color="#000" stop-opacity="0"/><stop offset="1" stop-color="#000" stop-opacity="0.35"/>
    </linearGradient>
    <pattern id="grid" width="20" height="20" patternUnits="userSpaceOnUse">
      <path d="M20 0 L0 0 0 20" fill="none" stroke="#b794f4" stroke-opacity="0.08" stroke-width="1"/>
    </pattern>
  </defs>
  <rect width="360" height="200" fill="url(#bg)"/>
  <rect width="360" height="200" fill="url(#grid)"/>
  <rect width="360" height="200" fill="url(#vig)"/>
  <rect x="4" y="4" width="352" height="192" rx="10" fill="none" stroke="#b794f4" stroke-opacity="0.35" stroke-width="2"/>
  <g transform="translate(96,96)" opacity="0.92"><rect x="-30" y="-24" width="60" height="48" rx="4" fill="none" stroke="#b794f4" stroke-width="6"/><line x1="-30" y1="0" x2="30" y2="0" stroke="#b794f4" stroke-width="5"/><line x1="0" y1="-24" x2="0" y2="24" stroke="#b794f4" stroke-width="5"/></g>
  <rect x="24" y="18" width="86" height="26" rx="13" fill="#0006" stroke="#b794f4" stroke-opacity="0.5"/>
  <text x="67" y="36" font-family="Arial, sans-serif" font-size="13" font-weight="bold" fill="#b794f4" text-anchor="middle" letter-spacing="1">TIER 2</text>
  <circle cx="316" cy="34" r="9" fill="#4299e1" stroke="#0009" stroke-width="1.5"/><circle cx="290" cy="34" r="9" fill="#ecc94b" stroke="#0009" stroke-width="1.5"/>
  <text x="24" y="152" font-family="Arial, sans-serif" font-size="26" font-weight="800" fill="#fff">Water Treatment</text>
  <text x="24" y="180" font-family="Arial, sans-serif" font-size="26" font-weight="800" fill="#fff">Plant</text>
  <text x="336" y="184" font-family="Arial, sans-serif" font-size="11" fill="#fff" fill-opacity="0.5" text-anchor="end">RustMasterTool · Map Intel</text>
</svg>